ModelForces
version=1
nRows=4
nColumns=203
inDegrees=no

This file contains the forces exerted on a model during a simulation.

A force is a generalized force, meaning that it can be either a force (N) or a torque (Nm).

Units are S.I. units (second, meters, Newtons, ...)
Angles are in degrees.

endheader
time	glut_med1_r	glut_med2_r	glut_med3_r	glut_min1_r	glut_min2_r	glut_min3_r	semimem_r	semiten_r	bifemlh_r	bifemsh_r	sar_r	add_long_r	add_brev_r	add_mag1_r	add_mag2_r	add_mag3_r	tfl_r	pect_r	grac_r	glut_max1_r	glut_max2_r	glut_max3_r	iliacus_r	psoas_r	quad_fem_r	gem_r	peri_r	rect_fem_r	vas_med_r	vas_int_r	vas_lat_r	med_gas_r	lat_gas_r	soleus_r	tib_post_r	flex_dig_r	flex_hal_r	tib_ant_r	per_brev_r	per_long_r	per_tert_r	ext_dig_r	ext_hal_r	glut_med1_l	glut_med2_l	glut_med3_l	glut_min1_l	glut_min2_l	glut_min3_l	semimem_l	semiten_l	bifemlh_l	bifemsh_l	sar_l	add_long_l	add_brev_l	add_mag1_l	add_mag2_l	add_mag3_l	tfl_l	pect_l	grac_l	glut_max1_l	glut_max2_l	glut_max3_l	iliacus_l	psoas_l	quad_fem_l	gem_l	peri_l	rect_fem_l	vas_med_l	vas_int_l	vas_lat_l	med_gas_l	lat_gas_l	soleus_l	tib_post_l	flex_dig_l	flex_hal_l	tib_ant_l	per_brev_l	per_long_l	per_tert_l	ext_dig_l	ext_hal_l	ercspn_r	ercspn_l	intobl_r	intobl_l	extobl_r	extobl_l	femur_lat_meniscii_l.femur_lat_l.force.X	femur_lat_meniscii_l.femur_lat_l.force.Y	femur_lat_meniscii_l.femur_lat_l.force.Z	femur_lat_meniscii_l.femur_lat_l.torque.X	femur_lat_meniscii_l.femur_lat_l.torque.Y	femur_lat_meniscii_l.femur_lat_l.torque.Z	femur_lat_meniscii_l.meniscus_lat_l.force.X	femur_lat_meniscii_l.meniscus_lat_l.force.Y	femur_lat_meniscii_l.meniscus_lat_l.force.Z	femur_lat_meniscii_l.meniscus_lat_l.torque.X	femur_lat_meniscii_l.meniscus_lat_l.torque.Y	femur_lat_meniscii_l.meniscus_lat_l.torque.Z	femur_med_meniscii_l.femur_med_l.force.X	femur_med_meniscii_l.femur_med_l.force.Y	femur_med_meniscii_l.femur_med_l.force.Z	femur_med_meniscii_l.femur_med_l.torque.X	femur_med_meniscii_l.femur_med_l.torque.Y	femur_med_meniscii_l.femur_med_l.torque.Z	femur_med_meniscii_l.meniscus_med_l.force.X	femur_med_meniscii_l.meniscus_med_l.force.Y	femur_med_meniscii_l.meniscus_med_l.force.Z	femur_med_meniscii_l.meniscus_med_l.torque.X	femur_med_meniscii_l.meniscus_med_l.torque.Y	femur_med_meniscii_l.meniscus_med_l.torque.Z	femur_lat_meniscii_r.femur_lat_r.force.X	femur_lat_meniscii_r.femur_lat_r.force.Y	femur_lat_meniscii_r.femur_lat_r.force.Z	femur_lat_meniscii_r.femur_lat_r.torque.X	femur_lat_meniscii_r.femur_lat_r.torque.Y	femur_lat_meniscii_r.femur_lat_r.torque.Z	femur_lat_meniscii_r.meniscus_lat_r.force.X	femur_lat_meniscii_r.meniscus_lat_r.force.Y	femur_lat_meniscii_r.meniscus_lat_r.force.Z	femur_lat_meniscii_r.meniscus_lat_r.torque.X	femur_lat_meniscii_r.meniscus_lat_r.torque.Y	femur_lat_meniscii_r.meniscus_lat_r.torque.Z	femur_med_meniscii_r.femur_med_r.force.X	femur_med_meniscii_r.femur_med_r.force.Y	femur_med_meniscii_r.femur_med_r.force.Z	femur_med_meniscii_r.femur_med_r.torque.X	femur_med_meniscii_r.femur_med_r.torque.Y	femur_med_meniscii_r.femur_med_r.torque.Z	femur_med_meniscii_r.meniscus_med_r.force.X	femur_med_meniscii_r.meniscus_med_r.force.Y	femur_med_meniscii_r.meniscus_med_r.force.Z	femur_med_meniscii_r.meniscus_med_r.torque.X	femur_med_meniscii_r.meniscus_med_r.torque.Y	femur_med_meniscii_r.meniscus_med_r.torque.Z	femur_med_tibia_l.tibia_upper_l.force.X	femur_med_tibia_l.tibia_upper_l.force.Y	femur_med_tibia_l.tibia_upper_l.force.Z	femur_med_tibia_l.tibia_upper_l.torque.X	femur_med_tibia_l.tibia_upper_l.torque.Y	femur_med_tibia_l.tibia_upper_l.torque.Z	femur_med_tibia_l.femur_med_l.force.X	femur_med_tibia_l.femur_med_l.force.Y	femur_med_tibia_l.femur_med_l.force.Z	femur_med_tibia_l.femur_med_l.torque.X	femur_med_tibia_l.femur_med_l.torque.Y	femur_med_tibia_l.femur_med_l.torque.Z	femur_lat_tibia_l.tibia_upper_l.force.X	femur_lat_tibia_l.tibia_upper_l.force.Y	femur_lat_tibia_l.tibia_upper_l.force.Z	femur_lat_tibia_l.tibia_upper_l.torque.X	femur_lat_tibia_l.tibia_upper_l.torque.Y	femur_lat_tibia_l.tibia_upper_l.torque.Z	femur_lat_tibia_l.femur_lat_l.force.X	femur_lat_tibia_l.femur_lat_l.force.Y	femur_lat_tibia_l.femur_lat_l.force.Z	femur_lat_tibia_l.femur_lat_l.torque.X	femur_lat_tibia_l.femur_lat_l.torque.Y	femur_lat_tibia_l.femur_lat_l.torque.Z	femur_med_tibia_r.tibia_upper_r.force.X	femur_med_tibia_r.tibia_upper_r.force.Y	femur_med_tibia_r.tibia_upper_r.force.Z	femur_med_tibia_r.tibia_upper_r.torque.X	femur_med_tibia_r.tibia_upper_r.torque.Y	femur_med_tibia_r.tibia_upper_r.torque.Z	femur_med_tibia_r.femur_med_r.force.X	femur_med_tibia_r.femur_med_r.force.Y	femur_med_tibia_r.femur_med_r.force.Z	femur_med_tibia_r.femur_med_r.torque.X	femur_med_tibia_r.femur_med_r.torque.Y	femur_med_tibia_r.femur_med_r.torque.Z	femur_lat_tibia_r.tibia_upper_r.force.X	femur_lat_tibia_r.tibia_upper_r.force.Y	femur_lat_tibia_r.tibia_upper_r.force.Z	femur_lat_tibia_r.tibia_upper_r.torque.X	femur_lat_tibia_r.tibia_upper_r.torque.Y	femur_lat_tibia_r.tibia_upper_r.torque.Z	femur_lat_tibia_r.femur_lat_r.force.X	femur_lat_tibia_r.femur_lat_r.force.Y	femur_lat_tibia_r.femur_lat_r.force.Z	femur_lat_tibia_r.femur_lat_r.torque.X	femur_lat_tibia_r.femur_lat_r.torque.Y	femur_lat_tibia_r.femur_lat_r.torque.Z	aACL_R	pACL_R	aPCL_R	pPCL_R	aMCL_R	mMCL_R	pMCL_R	aLCL_R	mLCL_R	pLCL_R	aPCL_L	pPCL_L	aMCL_L	aLCL_L
      0.13346173	     13.48465235	      9.71093759	     10.46309580	      4.45649364	      5.14035764	      5.69665536	     73.32587947	    158.06322117	    125.51747628	    273.86324710	    131.27039252	      9.68131442	      6.90752235	      4.98868506	      4.24673376	      7.23443372	      5.75880339	      3.76560127	     98.94695797	      6.27483259	      9.54857102	      7.19160790	     30.07243681	     21.40936060	      6.14734433	      4.07346506	      8.23444219	     53.88134168	     36.80871946	     38.56292161	     50.85176222	      0.00000000	      0.00000000	      0.00000000	      0.00000000	      0.00000000	      0.00000000	     43.88902933	      1.69474058	      1.95490020	     30.10628491	     33.26291545	      8.07339811	     13.48465235	      9.71093759	     10.46309580	      4.45649364	      5.14035764	      5.69665536	     16.95937003	      7.26132483	     14.65632762	     12.23776296	      2.54105407	      9.68131442	      6.90752235	      4.98868506	      4.24673376	      7.23443372	      6.11057378	      3.76560127	      2.62980670	      6.27483259	      9.54857102	      7.19160790	     30.07243681	     21.40936060	      6.14734433	      4.07346506	      8.23444219	     20.21634740	     11.46978558	     13.28232187	     14.26620102	     29.36764028	     13.65338854	     62.67916140	     55.73036797	      6.68872393	      6.56197787	     15.73802027	      8.48005033	     21.39928164	      3.30842275	     10.35171732	      3.23180396	     41.96109435	     41.96109435	     15.76830697	     15.76830697	     32.92572412	     32.92572412	      2.76307435	     50.99597937	     -9.56042239	      5.21997485	     -0.02578839	      1.48581788	     -2.76307435	    -50.99597937	      9.56042239	     -1.74637766	      0.02558040	     -0.48301696	     -3.31599387	     20.97615968	     -3.40468921	      0.94473225	     -0.02138609	     -1.00501789	      3.31599387	    -20.97615968	      3.40468921	      0.28075727	      0.00368718	     -0.29758878	     54.69836555	    114.61318205	     -5.52201104	     -0.29912386	      1.20393620	     21.06661447	    -54.69836555	   -114.61318205	      5.52201104	      2.71682896	     -1.22537628	      2.43699698	    131.64193392	    212.00523021	     -7.00773625	      7.46125025	     -2.86518451	     51.50607132	   -131.64193392	   -212.00523021	      7.00773625	     -4.23027529	      2.68578716	      3.76122235	      0.00000000	      0.00000000	      0.00000000	      0.00000000	      0.00000000	      0.00000000	      0.00000000	      0.00000000	      0.00000000	      0.00000000	      0.00000000	      0.00000000	      0.00000000	      0.00000000	      0.00000000	      0.00000000	      0.00000000	      0.00000000	      0.00000000	      0.00000000	      0.00000000	      0.00000000	      0.00000000	      0.00000000	   -388.77342775	   -724.52238183	     78.30767663	    -15.02628422	      9.22212397	     11.13382926	    388.77342775	    724.52238183	    -78.30767663	     47.10865826	     -8.57990814	    154.08719147	      0.00000000	      0.00000000	      0.00000000	      0.00000000	      0.00000000	      0.00000000	      0.00000000	      0.00000000	      0.00000000	      0.00000000	      0.00000000	      0.00000000	      9.75780218	      0.84829552	    457.52043820	    208.38578470	     48.79491952	     22.56611056	      0.00000000	      0.00000000	      0.00000000	      0.00000000	      0.00000000	      0.00000000	      0.00000001	      0.00000000
      0.13399451	     13.44251610	      9.68235419	     10.43194907	      4.44389015	      5.12651195	      5.67888915	     72.00819206	    158.01517694	    125.64008110	    274.00109094	    131.24146929	      9.65250694	      6.88816662	      4.97404686	      4.23399985	      7.21140962	      5.73468705	      3.75487417	     98.87083491	      6.25625868	      9.52025544	      7.16999027	     30.01938918	     21.34887170	      6.12959122	      4.06468171	      8.20671081	     54.37005484	     36.77127942	     38.55267329	     50.86230346	      0.00000000	      0.00000000	      0.00000000	      0.00000000	      0.00000000	      0.00000000	     43.96803961	      1.71884428	      2.00028390	     76.54423192	     33.46152951	      8.11643826	     13.44251610	      9.68235419	     10.43194907	      4.44389015	      5.12651195	      5.67888915	     16.90298924	      7.23876481	     14.60790592	     12.20237388	      2.53390078	      9.65250694	      6.88816662	      4.97404686	      4.23399985	      7.21140962	      6.09626697	      3.75487417	      2.62227617	      6.25625868	      9.52025544	      7.16999027	     30.01938918	     21.34887170	      6.12959122	      4.06468171	      8.20671081	     20.14979944	     11.43497919	     13.24146467	     14.22226042	     29.26869425	     13.60725557	     62.46740180	     55.63668088	      6.66565762	      6.53934113	     15.68682999	      8.45156714	     21.33855391	      3.29911012	     10.31695678	      3.22102998	     41.84216526	     41.84216526	     15.72029003	     15.72029003	     32.88187165	     32.88187165	      2.76307435	     50.99597937	     -9.56042239	      5.21997485	     -0.02578839	      1.48581788	     -2.76307435	    -50.99597937	      9.56042239	     -1.74637766	      0.02558040	     -0.48301696	     -3.31599387	     20.97615968	     -3.40468921	      0.94473225	     -0.02138609	     -1.00501789	      3.31599387	    -20.97615968	      3.40468921	      0.28075727	      0.00368718	     -0.29758878	     52.67816127	    113.52193360	     -5.64832231	     -0.21932279	      1.14451660	     20.23473836	    -52.67816127	   -113.52193360	      5.64832231	      2.68479768	     -1.15826068	      2.48287989	    133.23146343	    212.27369509	     -8.22089304	      7.96449573	     -2.91013465	     52.12895979	   -133.23146343	   -212.27369509	      8.22089304	     -4.26062446	      2.75130307	      3.79640273	      0.00000000	      0.00000000	      0.00000000	      0.00000000	      0.00000000	      0.00000000	      0.00000000	      0.00000000	      0.00000000	      0.00000000	      0.00000000	      0.00000000	      0.00000000	      0.00000000	      0.00000000	      0.00000000	      0.00000000	      0.00000000	      0.00000000	      0.00000000	      0.00000000	      0.00000000	      0.00000000	      0.00000000	   -394.27553828	   -723.84107742	     78.93705044	    -15.00332165	      9.34387552	     11.16383864	    394.27553828	    723.84107742	    -78.93705044	     47.34169562	     -8.69671798	    156.29452141	      0.00000000	      0.00000000	      0.00000000	      0.00000000	      0.00000000	      0.00000000	      0.00000000	      0.00000000	      0.00000000	      0.00000000	      0.00000000	      0.00000000	      9.86010799	      0.96432294	    463.04005529	    210.58615658	     48.88965844	     22.65341275	      0.00000000	      0.00000000	      0.00000000	      0.00000000	      0.00000000	      0.00000000	      0.00000001	      0.00000000
      0.13416513	     13.42908661	      9.67324414	     10.42202216	      4.43987299	      5.12209906	      5.67322679	     71.57967426	    158.00213743	    125.68365957	    274.05382785	    131.23405039	      9.64332558	      6.88199719	      4.96938144	      4.22994146	      7.20407135	      5.72672596	      3.75145512	     98.84809967	      6.25033902	      9.51123100	      7.16310055	     30.00248346	     21.32959424	      6.12393286	      4.06188265	      8.19786975	     54.53189731	     36.78004871	     38.56043813	     50.87268651	      0.00000000	      0.00000000	      0.00000000	      0.00000000	      0.00000000	      0.00000000	     43.99217757	      1.72666265	      2.01499670	     33.19902876	     33.52593096	      8.13028820	     13.42908661	      9.67324414	     10.42202216	      4.43987299	      5.12209906	      5.67322679	     16.88501574	      7.23157462	     14.59247087	     12.19109457	      2.53162077	      9.64332558	      6.88199719	      4.96938144	      4.22994146	      7.20407135	      6.09170717	      3.75145512	      2.61987597	      6.25033902	      9.51123100	      7.16310055	     30.00248346	     21.32959424	      6.12393286	      4.06188265	      8.19786975	     20.12858690	     11.42388653	     13.22844358	     14.20825700	     29.23714502	     13.59254616	     62.39989099	     55.60682098	      6.65830021	      6.53212156	     15.67051358	      8.44248747	     21.31919688	      3.29614222	     10.30587733	      3.21759622	     41.80425861	     41.80425861	     15.70498641	     15.70498641	     32.86789674	     32.86789674	      2.76307435	     50.99597937	     -9.56042239	      5.21997485	     -0.02578839	      1.48581788	     -2.76307435	    -50.99597937	      9.56042239	     -1.74637766	      0.02558040	     -0.48301696	     -3.31599387	     20.97615968	     -3.40468921	      0.94473225	     -0.02138609	     -1.00501789	      3.31599387	    -20.97615968	      3.40468921	      0.28075727	      0.00368718	     -0.29758878	     54.53778285	    112.55114744	     -5.85759806	     -0.10722063	      1.19230785	     21.01112912	    -54.53778285	   -112.55114744	      5.85759806	      2.65184385	     -1.20627579	      2.41246530	    134.27848263	    211.37065259	     -7.56304426	      7.66146887	     -2.92805634	     52.56083039	   -134.27848263	   -211.37065259	      7.56304426	     -4.21366726	      2.75309018	      3.76342771	      0.00000000	      0.00000000	      0.00000000	      0.00000000	      0.00000000	      0.00000000	      0.00000000	      0.00000000	      0.00000000	      0.00000000	      0.00000000	      0.00000000	      0.00000000	      0.00000000	      0.00000000	      0.00000000	      0.00000000	      0.00000000	      0.00000000	      0.00000000	      0.00000000	      0.00000000	      0.00000000	      0.00000000	   -396.33839636	   -723.51261271	     78.59732052	    -14.97768365	      9.37393823	     11.16205753	    396.33839636	    723.51261271	    -78.59732052	     47.18826806	     -8.73704032	    157.12733143	      0.00000000	      0.00000000	      0.00000000	      0.00000000	      0.00000000	      0.00000000	      0.00000000	      0.00000000	      0.00000000	      0.00000000	      0.00000000	      0.00000000	      9.87780119	      0.99621996	    464.83157857	    211.38540823	     48.95392019	     22.71865716	      0.00000000	      0.00000000	      0.00000000	      0.00000000	      0.00000000	      0.00000000	      0.00000001	      0.00000000
      0.13433576	     13.41568836	      9.66415524	     10.41211837	      4.43586506	      5.11769643	      5.66757759	     71.14742259	    157.98925719	    125.72763176	    274.10350339	    131.22662157	      9.63416561	      6.87584190	      4.96472688	      4.22589255	      7.19675009	      5.71871676	      3.74804396	     98.82545868	      6.24443319	      9.50222764	      7.15622693	     29.98561775	     21.31036227	      6.11828760	      4.05909026	      8.18904798	     54.69281134	     36.77724781	     38.56174524	     50.87830084	      0.00000000	      0.00000000	      0.00000000	      0.00000000	      0.00000000	      0.00000000	     44.01596981	      1.73460213	      2.02986157	     32.90039989	     33.59058599	      8.14420747	     13.41568836	      9.66415524	     10.41211837	      4.43586506	      5.11769643	      5.66757759	     16.86708211	      7.22440118	     14.57707062	     12.17984137	      2.52934599	      9.63416561	      6.87584190	      4.96472688	      4.22589255	      7.19675009	      6.08715798	      3.74804396	      2.61748132	      6.24443319	      9.50222764	      7.15622693	     29.98561775	     21.31036227	      6.11828760	      4.05909026	      8.18904798	     20.10742244	     11.41282000	     13.21545315	     14.19428671	     29.20566264	     13.57786803	     62.33252774	     55.57703038	      6.65095712	      6.52491642	     15.65423453	      8.43342812	     21.29988384	      3.29318133	     10.29482329	      3.21417049	     41.76643915	     41.76643915	     15.68971848	     15.68971848	     32.85395509	     32.85395509	      2.76307435	     50.99597937	     -9.56042239	      5.21997485	     -0.02578839	      1.48581788	     -2.76307435	    -50.99597937	      9.56042239	     -1.74637766	      0.02558040	     -0.48301696	     -3.31599387	     20.97615968	     -3.40468921	      0.94473225	     -0.02138609	     -1.00501789	      3.31599387	    -20.97615968	      3.40468921	      0.28075727	      0.00368718	     -0.29758878	     54.66520280	    112.51042280	     -5.85406225	     -0.10855923	      1.19524099	     21.06140416	    -54.66520280	   -112.51042280	      5.85406225	      2.65222482	     -1.20953809	      2.41655292	    132.22630725	    207.43526247	     -7.51284953	      7.56873833	     -2.89268839	     51.76778043	   -132.22630725	   -207.43526247	      7.51284953	     -4.14920338	      2.72162883	      3.69302613	      0.00000000	      0.00000000	      0.00000000	      0.00000000	      0.00000000	      0.00000000	      0.00000000	      0.00000000	      0.00000000	      0.00000000	      0.00000000	      0.00000000	      0.00000000	      0.00000000	      0.00000000	      0.00000000	      0.00000000	      0.00000000	      0.00000000	      0.00000000	      0.00000000	      0.00000000	      0.00000000	      0.00000000	   -397.56947815	   -723.81077881	     78.88984846	    -14.98139061	      9.40620133	     11.20176635	    397.56947815	    723.81077881	    -78.88984846	     47.31056899	     -8.76458971	    157.60956040	      0.00000000	      0.00000000	      0.00000000	      0.00000000	      0.00000000	      0.00000000	      0.00000000	      0.00000000	      0.00000000	      0.00000000	      0.00000000	      0.00000000	      9.86984825	      1.00584344	    466.62797613	    212.20847166	     48.99265280	     22.76511476	      0.00000000	      0.00000000	      0.00000000	      0.00000000	      0.00000000	      0.00000000	      0.00000001	      0.00000000
